<svg width="32" height="32" viewBox="0 0 32 32" fill="none" xmlns="http://www.w3.org/2000/svg">
  <!-- Background -->
  <rect width="32" height="32" rx="6" fill="#2d3240"/>

  <!-- === OUTER strokes (cyan, thick) === -->

  <!-- Top arc -->
  <path d="M 3 8.5 Q 16 3.5 29 8.5" stroke="#00d4ff" stroke-width="3.8" stroke-linecap="round" fill="none"/>
  <!-- J vertical stem -->
  <line x1="9.5" y1="8.5" x2="9.5" y2="22" stroke="#00d4ff" stroke-width="3.8" stroke-linecap="round"/>
  <!-- J bottom curl -->
  <path d="M 9.5 22 Q 9.5 29 4 29 Q 1.5 29 1.5 26" stroke="#00d4ff" stroke-width="3.8" stroke-linecap="round" fill="none"/>
  <!-- F vertical stem -->
  <line x1="20" y1="8.5" x2="20" y2="29.5" stroke="#00d4ff" stroke-width="3.8" stroke-linecap="round"/>
  <!-- F top bar -->
  <line x1="20" y1="8.5" x2="30" y2="8.5" stroke="#00d4ff" stroke-width="3.8" stroke-linecap="round"/>
  <!-- F middle crossbar -->
  <line x1="20" y1="19" x2="28.5" y2="19" stroke="#00d4ff" stroke-width="3.8" stroke-linecap="round"/>

  <!-- === INNER strokes (dark, thin) — creates double-line effect === -->

  <path d="M 3 8.5 Q 16 3.5 29 8.5" stroke="#2d3240" stroke-width="1.6" fill="none"/>
  <line x1="9.5" y1="8.5" x2="9.5" y2="22" stroke="#2d3240" stroke-width="1.6"/>
  <path d="M 9.5 22 Q 9.5 29 4 29 Q 1.5 29 1.5 26" stroke="#2d3240" stroke-width="1.6" fill="none"/>
  <line x1="20" y1="8.5" x2="20" y2="29.5" stroke="#2d3240" stroke-width="1.6"/>
  <line x1="20" y1="8.5" x2="30" y2="8.5" stroke="#2d3240" stroke-width="1.6"/>
  <line x1="20" y1="19" x2="28.5" y2="19" stroke="#2d3240" stroke-width="1.6"/>
</svg>
